<?xml version="1.0" standalone="no"?>
<!DOCTYPE svg PUBLIC "-//W3C//DTD SVG 20010904//EN"
 "http://www.w3.org/TR/2001/REC-SVG-20010904/DTD/svg10.dtd">
<svg version="1.0" xmlns="http://www.w3.org/2000/svg"
 width="428.000000pt" height="428.000000pt" viewBox="0 0 428.000000 428.000000"
 preserveAspectRatio="xMidYMid meet">
<metadata>
Created by potrace 1.11, written by Peter Selinger 2001-2013
</metadata>
<g transform="translate(0.000000,428.000000) scale(0.100000,-0.100000)"
fill="#000000" stroke="none">
<path d="M1247 3992 c-17 -62 -21 -58 80 -67 84 -7 178 -30 210 -51 71 -46 82
-162 32 -349 -6 -22 -12 -47 -14 -55 -2 -8 -26 -100 -55 -205 -28 -104 -60
-221 -70 -260 -10 -38 -44 -164 -75 -280 -90 -337 -92 -344 -192 -715 -104
-387 -134 -501 -192 -720 -105 -395 -154 -572 -177 -650 -48 -159 -108 -257
-185 -306 -46 -29 -176 -62 -269 -68 -36 -2 -70 -5 -76 -5 -6 -1 -14 -14 -17
-30 -3 -16 -9 -40 -13 -54 l-6 -26 144 6 c187 8 952 8 1184 0 l181 -6 12 51
c6 28 10 52 8 54 -2 2 -41 6 -87 9 -47 3 -94 8 -106 10 -12 3 -39 7 -60 10
-142 21 -214 88 -214 199 0 83 24 182 197 816 41 151 76 282 78 290 7 35 106
394 110 400 3 4 121 7 262 5 278 -3 317 -8 393 -59 43 -29 83 -89 104 -160 14
-47 15 -230 1 -306 -13 -75 -25 -156 -25 -177 0 -21 4 -23 60 -23 l59 0 10 38
c6 20 13 53 16 72 3 19 8 43 11 52 5 17 11 42 20 88 73 358 183 782 300 1158
25 78 43 146 40 150 -3 6 -89 8 -117 3 -4 -1 -28 -58 -54 -128 -56 -152 -118
-271 -190 -368 -84 -112 -139 -156 -251 -197 -54 -19 -84 -22 -335 -26 l-277
-4 15 54 c8 29 25 94 38 143 13 50 60 225 104 390 45 165 111 410 147 545 108
405 140 492 207 563 92 97 150 109 522 111 154 0 318 -2 365 -6 261 -22 395
-117 440 -313 12 -51 16 -259 7 -330 -3 -22 -9 -65 -12 -95 -4 -30 -8 -66 -10
-80 -3 -14 -7 -43 -9 -65 -3 -22 -9 -61 -14 -87 l-9 -48 63 0 63 0 9 38 c6 20
26 109 46 197 21 88 39 167 41 175 16 72 197 645 231 735 3 6 -21 8 -63 5 -89
-6 -2388 -5 -2519 1 l-102 5 -15 -54z"/>
</g>
</svg>
